<svg width="174" height="80" viewBox="0 0 174 80" fill="none" xmlns="http://www.w3.org/2000/svg">
<path d="M67.0018 72.3834H62.6681V74.9664H61.5771V69.1934H62.6681V71.3583H67.0018V69.1934H68.0895V74.9664H67.0018V72.3834Z" fill="white"/>
<path d="M74.9982 68.978C77.1633 68.978 78.911 70.3774 78.911 72.0837C78.911 73.79 77.1633 75.176 74.9982 75.176C72.833 75.176 71.082 73.79 71.082 72.0837C71.082 70.3774 72.8398 68.978 74.9982 68.978ZM74.9982 74.1407C76.5337 74.1407 77.7728 73.2303 77.7728 72.0837C77.7728 70.9372 76.5337 70.0133 74.9982 70.0133C73.4627 70.0133 72.2303 70.9338 72.2303 72.0837C72.2303 73.2336 73.4795 74.1407 75.0083 74.1407" fill="white"/>
<path d="M80.8594 70.2286V69.1934H87.3414V70.2286H84.6442V74.9664H83.5532V70.2286H80.8594Z" fill="white"/>
<path d="M89.8311 69.1934H95.3736V70.2286H90.9288V71.4291H94.6732V72.4643H90.922V73.9345H95.3736V74.9664H89.8311V69.1934Z" fill="white"/>
<path d="M99.4074 73.9345H103.751V74.9698H98.3164V69.1934H99.4074V73.9345Z" fill="white"/>
<path d="M108.715 75.176C107.668 75.176 106.577 74.9096 106.001 74.5016V73.1528C106.777 73.7785 107.736 74.1337 108.732 74.1644C109.823 74.1644 110.513 73.7901 110.513 73.4091C110.513 72.9336 109.654 72.7785 108.745 72.6335C107.425 72.4177 105.866 72.1243 105.866 70.7417C105.866 69.5514 107.307 69.0557 108.624 69.0557C109.55 69.0557 110.574 69.2647 111.089 69.666V70.8968C110.343 70.366 109.448 70.0841 108.533 70.0909C108.055 70.0909 107.025 70.2258 107.025 70.7653C107.025 71.3049 107.914 71.4397 108.883 71.6016C110.203 71.8174 111.651 72.0467 111.651 73.3585C111.651 74.6702 110.173 75.2131 108.715 75.2131" fill="white"/>
<path d="M97.8245 41.2251C97.4778 41.2136 97.1357 41.3062 96.8419 41.4908C96.5481 41.6755 96.316 41.9438 96.1756 42.2614C96.0351 42.579 95.9925 42.9313 96.0534 43.2733C96.1142 43.6153 96.2757 43.9312 96.517 44.1807C96.7584 44.4301 97.0687 44.6017 97.4081 44.6734C97.7475 44.745 98.1005 44.7135 98.4219 44.5829C98.7433 44.4523 99.0184 44.2285 99.2119 43.9403C99.4055 43.652 99.5086 43.3124 99.5081 42.9651C99.5144 42.511 99.3408 42.0729 99.0252 41.7468C98.7097 41.4207 98.2779 41.233 97.8245 41.2251Z" fill="white"/>
<path d="M15.6611 41.563V44.5102L28.1638 44.463L15.6611 55.0312V58.0222H33.0262V55.0717H20.308L32.9151 44.463V41.563H15.6611Z" fill="white"/>
<path d="M50.0604 41.562L40.4805 58.0179H44.0127L46.8076 53.2126H56.1417L58.9433 58.0179H62.3947L52.8081 41.562H50.0604ZM48.5182 50.2621L51.4376 45.2275L54.4143 50.2621H48.5182Z" fill="white"/>
<path d="M70.7891 58.0213H73.8937V50.8825H84.5949V47.9319H73.9206V44.5092H86.585V41.562H70.7891V58.0213Z" fill="white"/>
<path d="M99.3664 46.9951H96.2617V58.0219H99.3664V46.9951Z" fill="white"/>
<path d="M126.205 46.283C126.205 42.7153 122.871 41.562 119.972 41.562H110.321V58.0179H113.423V51.0275H119.288L123.558 58.0179H127.262L122.703 50.6667C124.636 50.1069 126.205 48.8087 126.205 46.283ZM119.686 48.0837H113.423V44.5126H119.686C122.076 44.5126 122.959 45.1297 122.959 46.2796C122.959 47.4295 122.076 48.0803 119.686 48.0803" fill="white"/>
<path d="M146.379 40.9429C140.234 40.9429 135.224 44.9253 135.224 49.7947C135.224 54.664 140.251 58.6093 146.379 58.6093C152.508 58.6093 157.539 54.6572 157.539 49.7947C157.539 44.9321 152.558 40.9429 146.379 40.9429ZM146.379 55.6621C142.026 55.6621 138.466 53.0656 138.466 49.7947C138.466 46.5237 142.026 43.8901 146.379 43.8901C150.733 43.8901 154.296 46.5203 154.296 49.7947C154.296 53.069 150.764 55.6621 146.379 55.6621Z" fill="white"/>
<path d="M108.976 19.9167C107.465 21.5513 105.755 22.989 103.885 24.196C101.991 25.3722 99.9293 26.2513 97.7701 26.8026C93.3499 27.9443 88.6963 27.8004 84.3548 26.3878C81.9607 25.6089 79.708 24.4522 77.4755 23.2787C75.3642 22.1525 73.2428 20.9924 70.9194 20.3855C68.7273 19.792 66.2422 19.5357 64.2017 20.7497C63.2295 21.3132 62.4635 22.1742 62.0162 23.206C61.5689 24.2379 61.4639 25.3862 61.7166 26.4822C62.3227 29.0147 64.7034 30.4883 67.1278 30.4445C69.7914 30.3939 72.2427 29.008 74.4281 27.5579L71.3975 26.0607C70.0708 26.8228 68.5926 27.5242 67.047 27.5411C65.7001 27.5411 64.3532 26.7082 64.3532 25.1806C64.3532 23.653 66.0705 22.7864 67.3838 22.7898C68.9352 22.8279 70.4658 23.1573 71.8959 23.7609C73.5064 24.4406 75.08 25.2049 76.6101 26.0506L76.7077 26.1012C78.7628 27.23 80.9018 28.1985 83.1056 28.9978C85.3897 29.7785 87.7679 30.2491 90.1769 30.3973C95.5024 30.7493 100.806 29.4418 105.36 26.6542C107.697 25.1563 109.808 23.3315 111.63 21.2352L108.976 19.9167Z" fill="white"/>
<path d="M94.9366 12.8355L91.896 11.3281L78.4336 21.114L81.3631 22.5674L94.9366 12.8355Z" fill="white"/>
<path d="M64.225 13.999C65.7316 12.3644 67.4389 10.9277 69.3063 9.72312C71.1997 8.54576 73.2619 7.66557 75.4212 7.11311C79.8435 5.974 84.4983 6.1214 88.8399 7.538C91.2374 8.31696 93.4867 9.47359 95.7192 10.6471C97.8372 11.7633 99.9721 12.9098 102.285 13.537C104.474 14.1237 106.959 14.38 109 13.166C109.972 12.6028 110.738 11.7417 111.185 10.7097C111.632 9.67763 111.736 8.52916 111.481 7.43346C110.879 4.90101 108.498 3.4274 106.074 3.45775C103.41 3.50833 100.962 4.89427 98.7733 6.34427L101.804 7.84149C103.131 7.07939 104.609 6.37799 106.154 6.3645C107.501 6.34764 108.848 7.19404 108.848 8.72498C108.848 10.2559 107.131 11.1158 105.818 11.1124C104.268 11.0762 102.74 10.7479 101.312 10.1446C99.7015 9.46045 98.1279 8.69167 96.5981 7.84149L96.497 7.79091C94.443 6.66007 92.3039 5.69157 90.0992 4.89427C87.8082 4.11528 85.423 3.648 83.0077 3.50496C77.6822 3.15291 72.3784 4.46044 67.8247 7.248C65.4882 8.75078 63.379 10.5814 61.5615 12.6838L64.225 13.999Z" fill="white"/>
</svg>
