<svg width="130" height="75" viewBox="0 0 130 75" fill="none" xmlns="http://www.w3.org/2000/svg">
<path d="M50.0588 62.1944H46.821V64.1242H46.0059V59.811H46.821V61.4285H50.0588V59.811H50.8714V64.1242H50.0588V62.1944Z" fill="#000"/>
<path d="M56.0333 59.6499C57.6509 59.6499 58.9566 60.6954 58.9566 61.9703C58.9566 63.2451 57.6509 64.2805 56.0333 64.2805C54.4156 64.2805 53.1074 63.2451 53.1074 61.9703C53.1074 60.6954 54.4207 59.6499 56.0333 59.6499ZM56.0333 63.5071C57.1805 63.5071 58.1063 62.8269 58.1063 61.9703C58.1063 61.1137 57.1805 60.4234 56.0333 60.4234C54.8861 60.4234 53.9653 61.1111 53.9653 61.9703C53.9653 62.8294 54.8987 63.5071 56.0408 63.5071" fill="#000"/>
<path d="M60.4121 60.5845V59.811H65.255V60.5845H63.2399V64.1242H62.4247V60.5845H60.4121Z" fill="#000"/>
<path d="M67.1152 59.811H71.2562V60.5845H67.9354V61.4814H70.7329V62.2548H67.9303V63.3533H71.2562V64.1242H67.1152V59.811Z" fill="#000"/>
<path d="M74.2702 63.3533H77.5155V64.1268H73.4551V59.811H74.2702V63.3533Z" fill="#000"/>
<path d="M81.2241 64.2807C80.4416 64.2807 79.6265 64.0817 79.1963 63.7768V62.7691C79.7762 63.2366 80.4925 63.5019 81.2366 63.5249C82.0518 63.5249 82.5675 63.2452 82.5675 62.9605C82.5675 62.6053 81.926 62.4894 81.2467 62.3811C80.2605 62.2198 79.0957 62.0007 79.0957 60.9677C79.0957 60.0784 80.1725 59.708 81.1561 59.708C81.848 59.708 82.6128 59.8642 82.9977 60.164V61.0836C82.4401 60.687 81.772 60.4763 81.0882 60.4815C80.731 60.4815 79.9611 60.5822 79.9611 60.9853C79.9611 61.3884 80.6253 61.4892 81.3498 61.6101C82.336 61.7714 83.4178 61.9427 83.4178 62.9227C83.4178 63.9028 82.3134 64.3084 81.2241 64.3084" fill="#000"/>
<path d="M73.0876 38.9153C72.8286 38.9067 72.5729 38.9759 72.3534 39.1138C72.1339 39.2518 71.9606 39.4522 71.8556 39.6895C71.7506 39.9268 71.7189 40.1901 71.7643 40.4455C71.8098 40.701 71.9304 40.9371 72.1107 41.1235C72.2911 41.3099 72.5229 41.438 72.7765 41.4916C73.03 41.5451 73.2938 41.5216 73.5339 41.424C73.774 41.3264 73.9796 41.1592 74.1242 40.9438C74.2688 40.7285 74.3458 40.4748 74.3455 40.2153C74.3502 39.876 74.2204 39.5487 73.9847 39.305C73.7489 39.0614 73.4263 38.9212 73.0876 38.9153Z" fill="#000"/>
<path d="M11.7012 39.1675V41.3694L21.0423 41.3342L11.7012 49.2299V51.4646H24.6751V49.2602H15.173L24.592 41.3342V39.1675H11.7012Z" fill="#000"/>
<path d="M37.4015 39.167L30.2441 51.4616H32.8832L34.9713 47.8715H41.945L44.0382 51.4616H46.6169L39.4544 39.167H37.4015ZM36.2493 45.667L38.4305 41.9056L40.6545 45.667H36.2493Z" fill="#000"/>
<path d="M52.8887 51.4641H55.2082V46.1306H63.2034V43.9261H55.2283V41.3689H64.6902V39.167H52.8887V51.4641Z" fill="#000"/>
<path d="M74.2395 43.2261H71.9199V51.4645H74.2395V43.2261Z" fill="#000"/>
<path d="M94.2908 42.6941C94.2908 40.0286 91.8002 39.167 89.6341 39.167H82.4238V51.4616H84.7409V46.2389H89.1234L92.3134 51.4616H95.0807L91.6744 45.9693C93.1184 45.5511 94.2908 44.5812 94.2908 42.6941ZM89.4202 44.0395H84.7409V41.3715H89.4202C91.2064 41.3715 91.8656 41.8325 91.8656 42.6916C91.8656 43.5507 91.2064 44.037 89.4202 44.037" fill="#000"/>
<path d="M109.364 38.7041C104.773 38.7041 101.029 41.6795 101.029 45.3175C101.029 48.9555 104.785 51.9032 109.364 51.9032C113.943 51.9032 117.701 48.9505 117.701 45.3175C117.701 41.6845 113.981 38.7041 109.364 38.7041ZM109.364 49.7012C106.111 49.7012 103.452 47.7613 103.452 45.3175C103.452 42.8737 106.111 40.906 109.364 40.906C112.617 40.906 115.279 42.8712 115.279 45.3175C115.279 47.7638 112.64 49.7012 109.364 49.7012Z" fill="#000"/>
<path d="M81.4193 22.9952C80.2903 24.2164 79.0123 25.2906 77.6155 26.1923C76.2007 27.0712 74.66 27.7279 73.0468 28.1398C69.7444 28.9928 66.2675 28.8853 63.0239 27.8299C61.2352 27.248 59.5522 26.3838 57.8842 25.5071C56.3068 24.6656 54.7218 23.7989 52.986 23.3454C51.3482 22.902 49.4915 22.7105 47.967 23.6175C47.2406 24.0385 46.6683 24.6818 46.3342 25.4527C46 26.2236 45.9215 27.0816 46.1103 27.9005C46.5632 29.7925 48.3418 30.8935 50.1532 30.8608C52.1432 30.823 53.9747 29.7875 55.6074 28.7042L53.3432 27.5855C52.352 28.1549 51.2476 28.679 50.0928 28.6916C49.0865 28.6916 48.0802 28.0693 48.0802 26.928C48.0802 25.7867 49.3632 25.1392 50.3444 25.1417C51.5035 25.1702 52.647 25.4164 53.7155 25.8673C54.9188 26.3751 56.0944 26.9462 57.2376 27.578L57.3106 27.6158C58.846 28.4592 60.444 29.1827 62.0906 29.7799C63.7971 30.3632 65.5739 30.7148 67.3737 30.8255C71.3526 31.0885 75.3152 30.1116 78.7174 28.029C80.4635 26.9098 82.0409 25.5465 83.4018 23.9803L81.4193 22.9952Z" fill="#000"/>
<path d="M70.9295 17.7043L68.6577 16.5781L58.5996 23.8894L60.7883 24.9753L70.9295 17.7043Z" fill="#000"/>
<path d="M47.9841 18.5738C49.1097 17.3525 50.3853 16.2791 51.7804 15.3792C53.1951 14.4995 54.7358 13.8419 56.3491 13.4292C59.6531 12.5781 63.1308 12.6882 66.3745 13.7466C68.1657 14.3286 69.8463 15.1927 71.5142 16.0695C73.0967 16.9034 74.6917 17.76 76.42 18.2286C78.0553 18.667 79.9119 18.8585 81.4365 17.9515C82.1629 17.5307 82.7352 16.8873 83.069 16.1163C83.4028 15.3452 83.4805 14.4871 83.2906 13.6685C82.8403 11.7764 81.0616 10.6755 79.2503 10.6981C77.2603 10.7359 75.4313 11.7714 73.7961 12.8547L76.0603 13.9734C77.0515 13.404 78.1559 12.8799 79.3107 12.8699C80.317 12.8573 81.3233 13.4896 81.3233 14.6334C81.3233 15.7772 80.0402 16.4197 79.0591 16.4172C77.9016 16.3901 76.7597 16.1448 75.693 15.6941C74.4895 15.1829 73.3139 14.6085 72.1709 13.9734L72.0954 13.9356C70.5607 13.0907 68.9626 12.3671 67.3154 11.7714C65.6037 11.1894 63.8217 10.8403 62.0172 10.7334C58.0383 10.4704 54.0757 11.4473 50.6735 13.5299C48.9279 14.6527 47.352 16.0204 45.9941 17.5912L47.9841 18.5738Z" fill="#000"/>
</svg>
